<svg id="Content" xmlns="http://www.w3.org/2000/svg" viewBox="0 0 34 34"><defs><style>.cls-1{fill:#fff;}</style></defs><title>svg</title><rect x="0.5" y="0.5" width="33" height="33" rx="2.5" ry="2.5"/><path class="cls-1" d="M32,2a2,2,0,0,1,2,2V32a2,2,0,0,1-2,2H4a2,2,0,0,1-2-2V4A2,2,0,0,1,4,2H32m0-1H4A3,3,0,0,0,1,4V32a3,3,0,0,0,3,3H32a3,3,0,0,0,3-3V4a3,3,0,0,0-3-3h0Z" transform="translate(-1 -1)"/><path class="cls-1" d="M18,8a10,10,0,0,0-9.95,9H15V15.5a0.5,0.5,0,0,1,.5-0.5h5a0.5,0.5,0,0,1,.5.5v5a0.5,0.5,0,0,1-.5.5h-5a0.5,0.5,0,0,1-.5-0.5V19H8.05A10,10,0,1,0,18,8Z" transform="translate(-1 -1)"/></svg>